/* XPM */
static char *_3f8ee4379c244a7c66ba07f2458e732zZ3RdISjUdPnjjdt[] = {
/* columns rows colors chars-per-pixel */
"64 64 12 1 ",
"  c None",
". c #4D3519",
"X c #5C4322",
"o c #664B29",
"O c #727478",
"+ c #787A7D",
"@ c #84633A",
"# c #AB7F4D",
"$ c #AF9153",
"% c #CEA962",
"& c #E2C56D",
"* c #FED696",
/* pixels */
"                                                                ",
"                                                                ",
"                                                                ",
"                                                                ",
"                                                                ",
"                                                                ",
"                                                                ",
"                  @@#####@@####@@####@@@@@####                  ",
"                  @@#####@@####@@####@@@@@####                  ",
"                  @@#####@@####@@####@@@@@####                  ",
"                @@####@@@####@@####@@&&&&&&&&&##                ",
"                @@####@@@####@@####@@&&&&&&&&&##                ",
"              @@####@@#####@@####@@%%%%%%%%%%%%%##              ",
"              @@####@@#####@@####@@%%%%%%%%%%%%%##              ",
"            @@####@@#####@@####@@&&&&&&&&&&&&&&&&&##            ",
"            @@####@@#####@@####@@&&&&&&&&&&&&&&&&&##            ",
"          @@####@@####@@@####@@%%%%%%%%%%%%%%%%%%%%%##          ",
"          @@####@@####@@@####@@%%%%%%%%%%%%%%%%%%%%%##          ",
"       @@@####@@####@@#####@@&&&&&&&&&&&&&&&&&&&&&&&&&###       ",
"       @@@####@@####@@#####@@&&&&&&&&&&&&&&&&&&&&&&&&&###       ",
"     @@#####@@####@@#####@@%%%%%%%%%%%%%%%%%%%%%%%%%%%%%%##     ",
"     @@#####@@####@@#####@@%%%%%%%%%%%%%%%%%%%%%%%%%%%%%%##     ",
"     %%%%%%%%%%%%%%%%%%%%&&&&&&&&&&&&&&&&&&&&&&&&&&&&&&&&&&     ",
"     %%%%%%%%%%%%%%%%%%%%&&&&&&&&&&&&&&&&&&&&&&&&&&&&&&&&&&     ",
"     %%%%%%%%%%%%%%%%%%%%&&&&&&&&&&&&&&&&&&&&&&&&&&&&&&&&&&     ",
"     $$$$$$$$$$$$$$$$$$$$%%%%%%***************%%%%%%%%%%%%%     ",
"     $$$$$$$$$$$$$$$$$$$$%%%%%%***************%%%%%%%%%%%%%     ",
"     %%%%%%%%%%%%%%%%%%%%&&&&&&**....XXXXXoo**&&&&&&&&&&&&&     ",
"     %%%%%%%%%%%%%%%%%%%%&&&&&&**....XXXXXoo**&&&&&&&&&&&&&     ",
"     $$$$$$$$$$$$$$$$$$$$%%%%%%**..XXXXooooo**%%%%%%%%%%%%%     ",
"     $$$$$$$$$$$$$$$$$$$$%%%%%%**..XXXXooooo**%%%%%%%%%%%%%     ",
"     %%%%%%%%%%%%%%%%%%%%&&&&&&**....XXXXXoo**&&&&&&&&&&&&&     ",
"     %%%%%%%%%%%%%%%%%%%%&&&&&&**....XXXXXoo**&&&&&&&&&&&&&     ",
"     $$$$$$$$$$$$$$$$$$$$%%%%%%**..XXXXooooo**%%%%%%%%%%%%%     ",
"     $$$$$$$$$$$$$$$$$$$$%%%%%%**..XXXXooooo**%%%%%%%%%%%%%     ",
"     %%%%%%%%%%%%%%%%%%%%&&&&&&**..XXXXooooo**&&&&&&&&&&&&&     ",
"     %%%%%%%%%%%%%%%%%%%%&&&&&&**..XXXXooooo**&&&&&&&&&&&&&     ",
"     $$$$$$$$$$$$$$$$$$$$%%%%%%**....XXXXXoo**%%%%%%%%%%%%%     ",
"     $$$$$$$$$$$$$$$$$$$$%%%%%%**....XXXXXoo**%%%%%%%%%%%%%     ",
"     %%%%%%%%%%%%%%%%%%%%&&&&&&**..XXXXooooo**&&&&&&&&&&&&&     ",
"     %%%%%%%%%%%%%%%%%%%%&&&&&&**..XXXXooooo**&&&&&&&&&&&&&     ",
"     %%%%%%%%%%%%%%%%%%%%&&&&&&**..XXXXooooo**&&&&&&&&&&&&&     ",
"     $$$$$$$$$$$$$$$$$$$$%%%%%%**....XXXXXoo**%%%%%%%%%%%%%     ",
"     $$$$$$$$$$$$$$$$$$$$%%%%%%**....XXXXXoo**%%%%%%%%%%%%%     ",
"     %%%%%%%%%%%%%%%%%%%%&&&&&&**&&&&&&&&&&&**&&&&&&&&&&&&&     ",
"     %%%%%%%%%%%%%%%%%%%%&&&&&&**&&&&&&&&&&&**&&&&&&&&&&&&&     ",
"     ##                  &&      OOOOOOOOOOOOO           &&     ",
"     ##                  &&      OOOOOOOOOOOOO           &&     ",
"     ##                  &&      ##OO+++++++++OO         &&     ",
"     ##                  &&      ##OO+++++++++OO         &&     ",
"     ##                  &&      ##  OOOOOOOOOOOOO       &&     ",
"     ##                  &&      ##  OOOOOOOOOOOOO       &&     ",
"     ##                  &&      ##    OOO++++++++OO     &&     ",
"     ##                  &&      ##    OOO++++++++OO     &&     ",
"     ##                  &&      ##       OOOOOOOOOOOO   &&     ",
"     ##                  &&      ##       OOOOOOOOOOOO   &&     ",
"     ##                  &&      ##       OOOOOOOOOOOO   &&     ",
"                                                                ",
"                                                                ",
"                                                                ",
"                                                                ",
"                                                                ",
"                                                                ",
"                                                                "
};
