/* XPM */
static char *f26ea10b942848b2bef34030ea1a99e095gUeU43lp85HJDg[] = {
/* columns rows colors chars-per-pixel */
"64 64 81 1 ",
"  c None",
". c #CF7B08",
"X c #D47E0D",
"o c #DA7E0D",
"O c #C57F1D",
"+ c #C97D1E",
"@ c #D27F15",
"# c #DD7F13",
"$ c #C57D27",
"% c #C97D20",
"& c #C37F2E",
"* c #D3820C",
"= c #D88213",
"- c #D38018",
"; c #E7960F",
": c #E59410",
"> c #E89617",
", c #EB9911",
"< c #EFAE08",
"1 c #F6A907",
"2 c #F5AC0A",
"3 c #F8AD0E",
"4 c #ECB104",
"5 c #F5B10F",
"6 c #F5BB0D",
"7 c #F6AA12",
"8 c #F7AC18",
"9 c #F7B310",
"0 c #FABE13",
"q c #C68022",
"w c #EAB42D",
"e c #F9B225",
"r c #F4CA0E",
"t c #F6C611",
"y c #FAC513",
"u c #F5CB11",
"i c #F9CB11",
"p c #FAC21C",
"a c #F2CD1A",
"s c #FAC919",
"d c #FEC320",
"f c #F3CA23",
"g c #E5C43D",
"h c #C9AE70",
"j c #CBB275",
"k c #D6B778",
"l c #D4BB7F",
"z c #E0C749",
"x c #CCBC85",
"c c #D2BE80",
"v c #C3C293",
"b c #C5DDBE",
"n c #C9DCBE",
"m c #CEE0BA",
"M c #FFF7BE",
"N c #FFF8BB",
"B c #C6D7C4",
"V c #C5DCC1",
"C c #C8DCC3",
"Z c #C6DDC9",
"A c #CCDECA",
"S c #D4D9CA",
"D c #C5E1C1",
"F c #CAE2C3",
"G c #CDE1C9",
"H c #D0E2CB",
"J c #DBE7D6",
"K c #DDE7DB",
"L c #DDEBDB",
"P c #FDF6D9",
"I c #E3EFE0",
"U c #EFF8EE",
"Y c #F9F6EC",
"T c #F2F8EE",
"R c #EEFBF2",
"E c #F5F5F5",
"W c #FCF6F3",
"Q c #F5FAF5",
"! c #F8F9F7",
"~ c #F6F4F8",
"^ c #F9F9FA",
/* pixels */
"                                                                ",
"                                                                ",
"                                                                ",
"                                                                ",
"                                                                ",
"                                                                ",
"                                                                ",
"                                                                ",
"                                                                ",
"                                                                ",
"                                                                ",
"                                                                ",
"                                                                ",
"                                                                ",
"                                                                ",
"                                                                ",
"                                                                ",
"                                                                ",
"                                                                ",
"                                                                ",
"                                                                ",
"                                                                ",
"                                                                ",
"                                                                ",
"                             w<<<<44ua                          ",
"                           72traauuraii5                        ",
"                        Fn=uuffNNuuuuuri9                       ",
"                      ZDV@2ruPEzruuuuirruomD                    ",
"                     BQ~C@3ruPgauuuuuuuuu5olbC                  ",
"                    J!^W#1ayturrruuuuruuur*lbbS                 ",
"                    LEEY#1tuuuuuuuiuur4222.lbbZZ                ",
"                  GLEEEY@1uuuuuuuurr222222*xmbmV                ",
"                  GIEEEW#1uuuuuuuui0331222Xlbbbb                ",
"                  HLEEE~x>6tuuuuuui212322;kvbbDLV               ",
"                  HLEEE~Jj>06tuuuuu<2212;hGbbCL!V               ",
"                  GLE~WE!C$87suuuuy<2377qVVbbCEQD               ",
"                  GLEEEEEEbOqe2ps03773++FVbbVB!QV               ",
"                  SLEEEEEEEVm&#####@##bbDmbbLEECB               ",
"                 ATQEEEEEEEEEGDVFCDDVDVbbb!EE!VC                ",
"                CREEEEEEEEEEEE!E!CDmVVVbEE~EIbbC                ",
"                ZQEEEEEEEEEEEEEEE~~~~~~EEEVVVmC                 ",
"                VFUEEEE^EEEEEEEEEEEEEEECCnCVVb                  ",
"                 GDDDDmVEEEEEEEEE!CCCCVVbDb                     ",
"                        BVBVBBbBBBVCCVC                         ",
"                                                                ",
"                                                                ",
"                                                                ",
"                                                                ",
"                                                                ",
"                                                                ",
"                                                                ",
"                                                                ",
"                                                                ",
"                                                                ",
"                                                                ",
"                                                                ",
"                                                                ",
"                                                                ",
"                                                                ",
"                                                                ",
"                                                                ",
"                                                                ",
"                                                                ",
"                                                                "
};
