/* XPM */
static char *cb52aa1995544229bb30b556fab7420bgb9WxZHnzjnEhXae[] = {
/* columns rows colors chars-per-pixel */
"64 64 4 1 ",
"  c None",
". c #8A7F6A",
"X c #D1C49F",
"o c #F7E8BC",
/* pixels */
"                                                                ",
"                                                                ",
"                                                                ",
"                                                                ",
"                                                                ",
"                                                                ",
"                                                                ",
"                                                                ",
"                                                                ",
"                                                                ",
"                                                                ",
"                                                                ",
"                                                                ",
"                                                                ",
"                                                                ",
"                                                                ",
"                                                                ",
"                                                                ",
"                                                                ",
"                                                                ",
"                                                                ",
"                                                                ",
"                               .....                            ",
"                               .....                            ",
"                            .XXXXXXX....                        ",
"                        ....XXXXXXXXXXXX..                      ",
"                        ....XXXXXXXXXXXX..                      ",
"                      ..XXXXXXXXXXXXXXXX..                      ",
"                      ..XXXXXXXXXXXXXXXX..                      ",
"                      ..XXoooooooooXXXXXXX.                     ",
"                     .XXooooooooooooXXXXXX.                     ",
"                     .XXooooooooooooXXXXXX.                     ",
"                     .ooooooooooooooooooXX.                     ",
"                     .ooooooooooooooooooXX.                     ",
"                      ..ooooooooooooooooXX.                     ",
"                      ..ooooooooooooooXX..                      ",
"                      ..ooooooooooooooXX..                      ",
"                        ....ooooooooooXX..                      ",
"                        ....ooooooooooXX..                      ",
"                            ...ooooX....                        ",
"                               .....                            ",
"                               .....                            ",
"                                                                ",
"                                                                ",
"                                                                ",
"                                                                ",
"                                                                ",
"                                                                ",
"                                                                ",
"                                                                ",
"                                                                ",
"                                                                ",
"                                                                ",
"                                                                ",
"                                                                ",
"                                                                ",
"                                                                ",
"                                                                ",
"                                                                ",
"                                                                ",
"                                                                ",
"                                                                ",
"                                                                ",
"                                                                "
};
