/* XPM */
static char *_b61eb42267e485ec583ddd74caca7aaDqxYIY7RQGB8pZS9[] = {
/* columns rows colors chars-per-pixel */
"64 64 4 1 ",
"  c None",
". c #8A7F6A",
"X c #D1C49F",
"o c #F7E8BC",
/* pixels */
"                                                                ",
"                                                                ",
"                                                                ",
"                                                                ",
"                                                                ",
"                                                                ",
"                                                                ",
"                                                                ",
"                                                                ",
"                                                                ",
"                                                                ",
"                                                                ",
"                                                                ",
"                                                                ",
"                                                                ",
"                                                                ",
"                                                                ",
"                                                                ",
"                                                                ",
"                                                                ",
"                                                                ",
"                                                                ",
"                            .....                               ",
"                            .....                               ",
"                        ....Xoooo...                            ",
"                      ..XXoooooooooo....                        ",
"                      ..XXoooooooooo....                        ",
"                      ..XXoooooooooooooo..                      ",
"                      ..XXoooooooooooooo..                      ",
"                     .XXoooooooooooooooo..                      ",
"                     .XXoooooooooooooooooo.                     ",
"                     .XXoooooooooooooooooo.                     ",
"                     .XXXXXXooooooooooooXX.                     ",
"                     .XXXXXXooooooooooooXX.                     ",
"                     .XXXXXXXoooooooooXX..                      ",
"                      ..XXXXXXXXXXXXXXXX..                      ",
"                      ..XXXXXXXXXXXXXXXX..                      ",
"                      ..XXXXXXXXXXXX....                        ",
"                      ..XXXXXXXXXXXX....                        ",
"                        ....XXXXXXX.                            ",
"                            .....                               ",
"                            .....                               ",
"                                                                ",
"                                                                ",
"                                                                ",
"                                                                ",
"                                                                ",
"                                                                ",
"                                                                ",
"                                                                ",
"                                                                ",
"                                                                ",
"                                                                ",
"                                                                ",
"                                                                ",
"                                                                ",
"                                                                ",
"                                                                ",
"                                                                ",
"                                                                ",
"                                                                ",
"                                                                ",
"                                                                ",
"                                                                "
};
