/* XPM */
static char *result[] = {
/* columns rows colors chars-per-pixel */
"64 64 4 1 ",
"  c #8A7F6A",
". c #D1C49F",
"X c #F7E8BC",
"o c None",
/* pixels */
"oooooooooooooooooooooooooooooooooooooooooooooooooooooooooooooooo",
"oooooooooooooooooooooooooooooooooooooooooooooooooooooooooooooooo",
"oooooooooooooooooooooooooooooooooooooooooooooooooooooooooooooooo",
"oooooooooooooooooooooooooooooooooooooooooooooooooooooooooooooooo",
"oooooooooooooooooooooooooooooooooooooooooooooooooooooooooooooooo",
"oooooooooooooooooooooooooooooooooooooooooooooooooooooooooooooooo",
"oooooooooooooooooooooooooooooooooooooooooooooooooooooooooooooooo",
"oooooooooooooooooooooooooooooooooooooooooooooooooooooooooooooooo",
"oooooooooooooooooooooooooooooooooooooooooooooooooooooooooooooooo",
"oooooooooooooooooooooooooooooooooooooooooooooooooooooooooooooooo",
"oooooooooooooooooooooooooooooooooooooooooooooooooooooooooooooooo",
"oooooooooooooooooooooooooooooooooooooooooooooooooooooooooooooooo",
"oooooooooooooooooooooooooooooooooooooooooooooooooooooooooooooooo",
"oooooooooooooooooooooooooooooooooooooooooooooooooooooooooooooooo",
"oooooooooooooooooooooooooooooooooooooooooooooooooooooooooooooooo",
"oooooooooooooooooooooooooooooooooooooooooooooooooooooooooooooooo",
"oooooooooooooooooooooooooooooooooooooooooooooooooooooooooooooooo",
"oooooooooooooooooooooooooooooooooooooooooooooooooooooooooooooooo",
"oooooooooooooooooooooooooooooooooooooooooooooooooooooooooooooooo",
"oooooooooooooooooooooooooooooooooooooooooooooooooooooooooooooooo",
"oooooooooooooooooooooooooooooooooooooooooooooooooooooooooooooooo",
"oooooooooooooooooooooooooooooo    oooooooooooooooooooooooooooooo",
"ooooooooooooooooooooooooooo   XX..   ooooooooooooooooooooooooooo",
"ooooooooooooooooooooooooooo   XX..   ooooooooooooooooooooooooooo",
"ooooooooooooooooooooooooo  XXXXXXX...  ooooooooooooooooooooooooo",
"ooooooooooooooooooooooooo  XXXXXXX...  ooooooooooooooooooooooooo",
"ooooooooooooooooooooooooo  XXXXXXXX..  ooooooooooooooooooooooooo",
"ooooooooooooooooooooooooo  XXXXXXXX..  ooooooooooooooooooooooooo",
"oooooooooooooooooooooooo XXXXXXXXXX.... oooooooooooooooooooooooo",
"oooooooooooooooooooooooo XXXXXXXXXX.....oooooooooooooooooooooooo",
"oooooooooooooooooooooooo XXXXXXXXXX.....oooooooooooooooooooooooo",
"oooooooooooooooooooooo  XXXXXXXXXXX.....  oooooooooooooooooooooo",
"oooooooooooooooooooooo  XXXXXXXXXXX.....  oooooooooooooooooooooo",
"oooooooooooooooooooooo  XXXXXXXXXXX.....  oooooooooooooooooooooo",
"oooooooooooooooooooooo  XXXXXXXXXXX.....  oooooooooooooooooooooo",
"oooooooooooooooooooooo  .XXXXXXXXX......  oooooooooooooooooooooo",
"oooooooooooooooooooooooo XXXXXXX....... oooooooooooooooooooooooo",
"oooooooooooooooooooooooo XXXXXXX....... oooooooooooooooooooooooo",
"oooooooooooooooooooooooo ....XXX....... oooooooooooooooooooooooo",
"oooooooooooooooooooooooo ....XXX....... oooooooooooooooooooooooo",
"ooooooooooooooooooooooooo    ......    ooooooooooooooooooooooooo",
"ooooooooooooooooooooooooo    ......    ooooooooooooooooooooooooo",
"ooooooooooooooooooooooooooooo      ooooooooooooooooooooooooooooo",
"oooooooooooooooooooooooooooooooooooooooooooooooooooooooooooooooo",
"oooooooooooooooooooooooooooooooooooooooooooooooooooooooooooooooo",
"oooooooooooooooooooooooooooooooooooooooooooooooooooooooooooooooo",
"oooooooooooooooooooooooooooooooooooooooooooooooooooooooooooooooo",
"oooooooooooooooooooooooooooooooooooooooooooooooooooooooooooooooo",
"oooooooooooooooooooooooooooooooooooooooooooooooooooooooooooooooo",
"oooooooooooooooooooooooooooooooooooooooooooooooooooooooooooooooo",
"oooooooooooooooooooooooooooooooooooooooooooooooooooooooooooooooo",
"oooooooooooooooooooooooooooooooooooooooooooooooooooooooooooooooo",
"oooooooooooooooooooooooooooooooooooooooooooooooooooooooooooooooo",
"oooooooooooooooooooooooooooooooooooooooooooooooooooooooooooooooo",
"oooooooooooooooooooooooooooooooooooooooooooooooooooooooooooooooo",
"oooooooooooooooooooooooooooooooooooooooooooooooooooooooooooooooo",
"oooooooooooooooooooooooooooooooooooooooooooooooooooooooooooooooo",
"oooooooooooooooooooooooooooooooooooooooooooooooooooooooooooooooo",
"oooooooooooooooooooooooooooooooooooooooooooooooooooooooooooooooo",
"oooooooooooooooooooooooooooooooooooooooooooooooooooooooooooooooo",
"oooooooooooooooooooooooooooooooooooooooooooooooooooooooooooooooo",
"oooooooooooooooooooooooooooooooooooooooooooooooooooooooooooooooo",
"oooooooooooooooooooooooooooooooooooooooooooooooooooooooooooooooo",
"oooooooooooooooooooooooooooooooooooooooooooooooooooooooooooooooo"
};
