/* XPM */
static char *_79c7b4051694b47ee1d2124a863ef7fjDQT9CpIyv6yB6W8[] = {
/* columns rows colors chars-per-pixel */
"64 64 8 1 ",
"  c None",
". c #2F2F2E",
"X c #3B3B39",
"o c #4F4F4E",
"O c #9D5021",
"+ c #D67941",
"@ c gray72",
"# c white",
/* pixels */
"                                                                ",
"                                                                ",
"                                                                ",
"                                                                ",
"                                                                ",
"                                                                ",
"                                                                ",
"                                                                ",
"                                                                ",
"                      OOOOOO                                    ",
"                      OOOOOO                                    ",
"                      OOOOOO                                    ",
"       +++++++++      OOOOOOOOO                                 ",
"       +++++++++      OOOOOOOOO                                 ",
"       +++++++++      OOOOOOOOO                                 ",
"       ++++++OOO+++   O..###OOOOO                               ",
"       ++++++OOO+++   O..###OOOOO                               ",
"       ++++++OOO+++   O..###OOOOO                               ",
"          +++++++++++++++###OOOOO                  @@@          ",
"          +++++++++++++++###OOOOO                  @@@          ",
"          +++++++++++++++###OOOOO                  @@@          ",
"          +++++++++++++++OOOOOOOO               @@@@@@@@@       ",
"          +++++++++++++++OOOOOOOO               @@@@@@@@@       ",
"          +++++++++++++++OOOOOOOO               @@@@@@@@@       ",
"       OOO...OOOOOO...+++OOOOOOOO               ######@@@OOO    ",
"       OOO...OOOOOO...+++OOOOOOOO               ######@@@OOO    ",
"       OOO...OOOOOO...+++OOOOOOOO               ######@@@OOO    ",
"       ++++++++++++++++++OOOOOOOOOOO            ######OOOOOO    ",
"       ++++++++++++++++++OOOOOOOOOOO            ######OOOOOO    ",
"       ++++++++++++++++++OOOOOOOOOOO            ######OOOOOO    ",
"       #####################@@@@@OOO         +++++++++OOOOOO    ",
"       #####################@@@@@OOO         +++++++++OOOOOO    ",
"       #####################@@@@@OOO         +++++++++OOOOOO    ",
"       ......#########@@@@@@@@OOOOOOOOOOOOOOO+++++++++OOOOOO    ",
"       ......#########@@@@@@@@OOOOOOOOOOOOOOO+++++++++OOOOOO    ",
"       ......#########@@@@@@@@OOOOOOOOOOOOOOO+++++++++OOOOOO    ",
"             #########@@@@@@OOOOOOOOOOOOOOOOOOOO++++++OOOOOO    ",
"             #########@@@@@@OOOOOOOOOOOOOOOOOOOO++++++OOOOOO    ",
"             #########@@@@@@OOOOOOOOOOOOOOOOOOOO++++++OOOOOO    ",
"              ########+++++++++++OOOOOOOOOOOOOOOOOOOOOOOO       ",
"               #######+++++++++++OOOOOOOOOOOOOOOOOOOOOOOO       ",
"                ######+++++++++++OOOOOOOOOOOOOOOOOOOOOOOO       ",
"                @@@@@@@@@OOO++++++++OOOOOOOOOOOOOOOOOO          ",
"                @@@@@@@@@OOO++++++++OOOOOOOOOOOOOOOOOO          ",
"                @@@@@@@@@OOO++++++++OOOOOOOOOOOOOOOOOO          ",
"                OOO@@@@@@@@@++++++++OOOOOOOOOOOO                ",
"                OOO@@@@@@@@@++++++++OOOOOOOOOOOO                ",
"                OOO@@@@@@@@@++++++++OOOOOOOOOOOO                ",
"                ooo         ooo     XXX   XXX                   ",
"                ooo         ooo     XXX   XXX                   ",
"                ooo         ooo     XXX   XXX                   ",
"                XXX         XXX     XXX   XXX                   ",
"                XXX         XXX     XXX   XXX                   ",
"                XXX         XXX     XXX   XXX                   ",
"                                                                ",
"                                                                ",
"                                                                ",
"                                                                ",
"                                                                ",
"                                                                ",
"                                                                ",
"                                                                ",
"                                                                ",
"                                                                "
};
