/* XPM */
static char *_3c6a8814e014e30e04735e3330044d5n04zJnwmziUVNU5t[] = {
/* columns rows colors chars-per-pixel */
"64 64 8 1 ",
"  c None",
". c #2F2F2E",
"X c #3B3B39",
"o c #4F4F4E",
"O c #9D5021",
"+ c #D67941",
"@ c gray72",
"# c white",
/* pixels */
"                                                                ",
"                                                                ",
"                                                                ",
"                                                                ",
"                                                                ",
"                                                                ",
"                                                                ",
"                                                                ",
"                                                                ",
"                                    OOOOOO                      ",
"                                    OOOOOO                      ",
"                                    OOOOOO                      ",
"                                 OOOOOOOOO      +++++++++       ",
"                                 OOOOOOOOO      +++++++++       ",
"                                 OOOOOOOOO      +++++++++       ",
"                               OOOOO###..O   +++OOO++++++       ",
"                               OOOOO###..O   +++OOO++++++       ",
"                               OOOOO###..O   +++OOO++++++       ",
"          @@@                  OOOOO###+++++++++++++++          ",
"          @@@                  OOOOO###+++++++++++++++          ",
"          @@@                  OOOOO###+++++++++++++++          ",
"       @@@@@@@@@               OOOOOOOO+++++++++++++++          ",
"       @@@@@@@@@               OOOOOOOO+++++++++++++++          ",
"       @@@@@@@@@               OOOOOOOO+++++++++++++++          ",
"    OOO@@@######               OOOOOOOO+++...OOOOOO...OOO       ",
"    OOO@@@######               OOOOOOOO+++...OOOOOO...OOO       ",
"    OOO@@@######               OOOOOOOO+++...OOOOOO...OOO       ",
"    OOOOOO######            OOOOOOOOOOO++++++++++++++++++       ",
"    OOOOOO######            OOOOOOOOOOO++++++++++++++++++       ",
"    OOOOOO######            OOOOOOOOOOO++++++++++++++++++       ",
"    OOOOOO+++++++++         OOO@@@@@#####################       ",
"    OOOOOO+++++++++         OOO@@@@@#####################       ",
"    OOOOOO+++++++++         OOO@@@@@#####################       ",
"    OOOOOO+++++++++OOOOOOOOOOOOOOO@@@@@@@@#########......       ",
"    OOOOOO+++++++++OOOOOOOOOOOOOOO@@@@@@@@#########......       ",
"    OOOOOO+++++++++OOOOOOOOOOOOOOO@@@@@@@@#########......       ",
"    OOOOOO++++++OOOOOOOOOOOOOOOOOOOO@@@@@@#########             ",
"    OOOOOO++++++OOOOOOOOOOOOOOOOOOOO@@@@@@#########             ",
"    OOOOOO++++++OOOOOOOOOOOOOOOOOOOO@@@@@@#########             ",
"       OOOOOOOOOOOOOOOOOOOOOOOO+++++++++++########              ",
"       OOOOOOOOOOOOOOOOOOOOOOOO+++++++++++#######               ",
"       OOOOOOOOOOOOOOOOOOOOOOOO+++++++++++######                ",
"          OOOOOOOOOOOOOOOOOO++++++++OOO@@@@@@@@@                ",
"          OOOOOOOOOOOOOOOOOO++++++++OOO@@@@@@@@@                ",
"          OOOOOOOOOOOOOOOOOO++++++++OOO@@@@@@@@@                ",
"                OOOOOOOOOOOO++++++++@@@@@@@@@OOO                ",
"                OOOOOOOOOOOO++++++++@@@@@@@@@OOO                ",
"                OOOOOOOOOOOO++++++++@@@@@@@@@OOO                ",
"                   XXX   XXX     ooo         ooo                ",
"                   XXX   XXX     ooo         ooo                ",
"                   XXX   XXX     ooo         ooo                ",
"                   XXX   XXX     XXX         XXX                ",
"                   XXX   XXX     XXX         XXX                ",
"                   XXX   XXX     XXX         XXX                ",
"                                                                ",
"                                                                ",
"                                                                ",
"                                                                ",
"                                                                ",
"                                                                ",
"                                                                ",
"                                                                ",
"                                                                ",
"                                                                "
};
